<svg width="58" height="24" viewBox="0 0 58 24" fill="none" xmlns="http://www.w3.org/2000/svg">
<path d="M-6.67572e-06 23.104V0H3.64799V1.216H4.86399V3.648H6.07999V6.08H7.29599V8.512H8.51199V10.944H9.72799V13.376H10.944V15.808H12.16V18.24H9.72799V15.808H8.51199V13.376H7.29599V10.944H6.07999V8.512H4.86399V6.08H3.64799V3.648H2.43199V23.104H-6.67572e-06ZM12.16 20.672V18.24H13.376V0H15.808V23.104H13.376V20.672H12.16ZM21.9035 21.888V19.456H20.6875V15.808H23.1195V19.456H24.3355V20.672H32.8475V19.456H34.0635V14.592H31.6315V13.376H27.9835V12.16H24.3355V10.944H21.9035V9.728H20.6875V3.648H21.9035V1.216H24.3355V0H31.6315V1.216H34.0635V2.432H35.2795V4.864H36.4955V7.296H34.0635V4.864H32.8475V3.648H31.6315V2.432H24.3355V3.648H23.1195V8.512H24.3355V9.728H29.1995V10.944H32.8475V12.16H35.2795V14.592H36.4955V19.456H35.2795V21.888H32.8475V23.104H24.3355V21.888H21.9035ZM41.375 23.104V0H52.319V1.216H54.751V2.432H55.967V3.648H57.183V8.512H55.967V9.728H54.751V10.944H52.319V9.728H53.535V8.512H54.751V4.864H53.535V3.648H52.319V2.432H43.807V10.944H52.319V12.16H54.751V13.376H55.967V14.592H57.183V23.104H54.751V15.808H53.535V14.592H52.319V13.376H43.807V23.104H41.375Z" fill="white"/>
</svg>
