<svg width="171" height="91" viewBox="0 0 171 91" fill="none" xmlns="http://www.w3.org/2000/svg">
<path d="M13.728 68V53.408H11.296V50.976H6.432V43.68H11.296V41.248H13.728V26.656H16.16V21.792H18.592V19.36H28.32V24.224H21.024V26.656H18.592V41.248H16.16V46.112H11.296V48.544H16.16V53.408H18.592V68H21.024V70.432H28.32V75.296H18.592V72.864H16.16V68H13.728ZM35.006 68V27.568H41.39V29.696H43.518V33.952H45.646V38.208H47.774V42.464H49.902V46.72H52.03V50.976H54.158V55.232H56.286V59.488H52.03V55.232H49.902V50.976H47.774V46.72H45.646V42.464H43.518V38.208H41.39V33.952H39.262V68H35.006ZM56.286 63.744V59.488H58.414V27.568H62.67V68H58.414V63.744H56.286ZM73.3371 65.872V61.616H71.2091V55.232H75.4651V61.616H77.5931V63.744H92.4891V61.616H94.6171V53.104H90.3611V50.976H83.9771V48.848H77.5931V46.72H73.3371V44.592H71.2091V33.952H73.3371V29.696H77.5931V27.568H90.3611V29.696H94.6171V31.824H96.7451V36.08H98.8731V40.336H94.6171V36.08H92.4891V33.952H90.3611V31.824H77.5931V33.952H75.4651V42.464H77.5931V44.592H86.1051V46.72H92.4891V48.848H96.7451V53.104H98.8731V61.616H96.7451V65.872H92.4891V68H77.5931V65.872H73.3371ZM107.412 68V27.568H126.564V29.696H130.82V31.824H132.948V33.952H135.076V42.464H132.948V44.592H130.82V46.72H126.564V44.592H128.692V42.464H130.82V36.08H128.692V33.952H126.564V31.824H111.668V46.72H126.564V48.848H130.82V50.976H132.948V53.104H135.076V68H130.82V55.232H128.692V53.104H126.564V50.976H111.668V68H107.412ZM141.791 75.296V70.432H149.087V68H151.519V53.408H153.951V48.544H158.815V46.112H153.951V41.248H151.519V26.656H149.087V24.224H141.791V19.36H151.519V21.792H153.951V26.656H156.383V41.248H158.815V43.68H163.679V50.976H158.815V53.408H156.383V68H153.951V72.864H151.519V75.296H141.791Z" fill="white"/>
</svg>
